HIERARCHY
ROOT joint_Root
{
	OFFSET 0.0 0.0 0.0
	CHANNELS 6 Xposition Yposition Zposition Zrotation Xrotation Yrotation 
	JOINT Hips
	{
		OFFSET 4.5925 91.4895 -427.239
		CHANNELS 6 Xposition Yposition Zposition Zrotation Xrotation Yrotation 
		JOINT Spine
		{
			OFFSET 15.7357 0.0 0.0
			CHANNELS 6 Xposition Yposition Zposition Zrotation Xrotation Yrotation 
			JOINT Chest
			{
				OFFSET 8.98455 -0.406207 0.0
				CHANNELS 6 Xposition Yposition Zposition Zrotation Xrotation Yrotation 
				JOINT Neck
				{
					OFFSET 16.3773 0.0 0.0
					CHANNELS 6 Xposition Yposition Zposition Zrotation Xrotation Yrotation 
					JOINT Head
					{
						OFFSET 6.45672 0.0 0.0
						CHANNELS 6 Xposition Yposition Zposition Zrotation Xrotation Yrotation 
						End Site
						{
							OFFSET 0.0 0.0 0.0
						}
					}
				}
				JOINT Shoulder_L
				{
					OFFSET 12.9942 -0.242716 4.98039
					CHANNELS 6 Xposition Yposition Zposition Zrotation Xrotation Yrotation 
					JOINT UpperArm_L
					{
						OFFSET 5.34809 0.0 0.0
						CHANNELS 6 Xposition Yposition Zposition Zrotation Xrotation Yrotation 
						JOINT LowerArm_L
						{
							OFFSET 24.3286 1.87007e-05 0.0
							CHANNELS 6 Xposition Yposition Zposition Zrotation Xrotation Yrotation 
							JOINT Hand_L
							{
								OFFSET 22.2916 0.0 0.0
								CHANNELS 6 Xposition Yposition Zposition Zrotation Xrotation Yrotation 
								End Site
								{
									OFFSET 0.0 0.0 0.0
								}
							}
						}
					}
				}
				JOINT Shoulder_R
				{
					OFFSET 12.9945 -0.242716 -4.98039
					CHANNELS 6 Xposition Yposition Zposition Zrotation Xrotation Yrotation 
					JOINT UpperArm_R
					{
						OFFSET -5.34813 0.0 0.0
						CHANNELS 6 Xposition Yposition Zposition Zrotation Xrotation Yrotation 
						JOINT LowerArm_R
						{
							OFFSET -24.3289 0.000322201 0.0
							CHANNELS 6 Xposition Yposition Zposition Zrotation Xrotation Yrotation 
							JOINT Hand_R
							{
								OFFSET -22.2915 -0.000108084 0.0
								CHANNELS 6 Xposition Yposition Zposition Zrotation Xrotation Yrotation 
								End Site
								{
									OFFSET 0.0 0.0 0.0
								}
							}
						}
					}
				}
			}
		}
		JOINT UpperLeg_L
		{
			OFFSET -2.19248 -6.46944 0.0
			CHANNELS 6 Xposition Yposition Zposition Zrotation Xrotation Yrotation 
			JOINT LowerLeg_L
			{
				OFFSET 39.0811 0.0 -1.23785e-05
				CHANNELS 6 Xposition Yposition Zposition Zrotation Xrotation Yrotation 
				JOINT Foot_L
				{
					OFFSET 40.9854 0.0 -1.26872e-05
					CHANNELS 6 Xposition Yposition Zposition Zrotation Xrotation Yrotation 
					JOINT Toes_L
					{
						OFFSET 11.7543 0.0 0.0
						CHANNELS 6 Xposition Yposition Zposition Zrotation Xrotation Yrotation 
						End Site
						{
							OFFSET 0.0 0.0 0.0
						}
					}
				}
			}
		}
		JOINT UpperLeg_R
		{
			OFFSET -2.19251 6.46944 0.0
			CHANNELS 6 Xposition Yposition Zposition Zrotation Xrotation Yrotation 
			JOINT LowerLeg_R
			{
				OFFSET -39.0811 -0.00228153 -0.0401928
				CHANNELS 6 Xposition Yposition Zposition Zrotation Xrotation Yrotation 
				JOINT Foot_R
				{
					OFFSET -40.9854 0.0 0.0
					CHANNELS 6 Xposition Yposition Zposition Zrotation Xrotation Yrotation 
					JOINT Toes_R
					{
						OFFSET -11.7543 0.0 0.0
						CHANNELS 6 Xposition Yposition Zposition Zrotation Xrotation Yrotation 
						End Site
						{
							OFFSET 0.0 0.0 0.0
						}
					}
				}
			}
		}
	}
}
MOTION
Frames:	5
Frame Time:	0.0333333
0.000000 0.000000 0.000000 0.000000 0.000000 -0.000000 -2.626760 90.679200 -5.066030 88.692000 0.407631 11.489400 15.735700 0.000005 -0.000001 87.799200 76.262800 -88.085600 8.984550 -0.406207 -0.000000 19.687800 -1.061810 -0.390195 16.377300 -0.000001 -0.000001 6.960770 -3.502820 1.551790 6.456720 -0.000001 -0.000000 -11.141400 -3.648380 1.733330 12.994200 -0.242716 4.980390 -90.872800 5.182590 -80.427200 5.348090 -0.000007 -0.000001 -57.422200 34.527000 -30.076600 24.328600 0.000019 0.000005 9.997100 22.650200 -24.595000 22.291600 -0.000001 0.000005 10.419800 5.250120 1.429480 12.994500 -0.242716 -4.980390 89.299000 9.066330 -85.559900 -5.348130 -0.000001 -0.000004 -61.853200 28.555800 -25.669000 -24.328900 0.000322 -0.000009 3.965190 8.765730 -24.464100 -22.291500 -0.000108 -0.000004 17.983300 5.371190 -2.023480 -2.192480 -6.469440 -0.000000 -172.287000 -12.759400 -4.085440 39.081100 -0.000007 -0.000012 -0.160011 0.247448 32.888800 40.985400 -0.000006 -0.000013 -0.901309 6.367310 -66.774000 11.754300 -0.000000 0.000003 -0.000160 -0.001536 -16.635800 -2.192510 6.469440 -0.000001 175.258000 25.993300 178.781000 -39.081100 -0.002282 -0.040193 -0.184931 0.303458 31.810700 -40.985400 0.000008 0.000006 5.211870 14.042600 -68.818500 -11.754300 -0.000006 -0.000006 -0.002732 -0.037529 -18.099300
0.000000 0.000000 0.000000 0.000000 0.000000 -0.000000 -2.619390 90.680600 -5.059170 88.673600 0.398053 11.470900 15.735700 0.000005 -0.000001 87.778800 76.281300 -88.080100 8.984550 -0.406207 -0.000000 19.650400 -1.071490 -0.418791 16.377300 -0.000001 -0.000001 6.988160 -3.500030 1.526750 6.456720 -0.000001 -0.000000 -11.130400 -3.658480 1.709850 12.994200 -0.242716 4.980390 -90.867200 5.152990 -80.433900 5.348090 -0.000007 -0.000001 -57.465400 34.469000 -30.036900 24.328600 0.000019 0.000005 10.021200 22.684300 -24.617300 22.291600 -0.000001 0.000005 10.363600 5.250100 1.430100 12.994500 -0.242716 -4.980390 89.302300 9.016430 -85.556900 -5.348130 -0.000001 -0.000004 -61.973800 28.317200 -25.512700 -24.328900 0.000322 -0.000009 4.072490 8.675780 -25.273300 -22.291500 -0.000108 -0.000004 18.099900 5.374310 -2.120350 -2.192480 -6.469440 -0.000000 -172.273000 -12.764200 -4.100840 39.081100 -0.000007 -0.000012 -0.161506 0.249710 32.893900 40.985400 -0.000006 -0.000013 -0.902580 6.350670 -66.782100 11.754300 -0.000000 0.000003 -0.000154 -0.001487 -16.634000 -2.192510 6.469440 -0.000001 175.277000 26.011400 178.773000 -39.081100 -0.002282 -0.040193 -0.186329 0.305917 31.793400 -40.985400 0.000008 0.000006 5.211500 14.059200 -68.811300 -11.754300 -0.000006 -0.000006 -0.002847 -0.038864 -18.153600
0.000000 0.000000 0.000000 0.000000 0.000000 -0.000000 -2.616270 90.686700 -5.060230 88.670000 0.376935 11.455300 15.735700 0.000005 -0.000001 87.763200 76.301700 -88.091500 8.984550 -0.406207 -0.000000 19.609000 -1.079970 -0.471805 16.377300 -0.000001 -0.000001 7.032710 -3.506360 1.503620 6.456720 -0.000001 -0.000000 -11.168900 -3.691810 1.691360 12.994200 -0.242716 4.980390 -90.853300 5.091310 -80.473200 5.348090 -0.000007 -0.000001 -57.580100 34.376100 -29.952100 24.328600 0.000019 0.000005 10.026700 22.700000 -24.615400 22.291600 -0.000001 0.000005 10.339600 5.250590 1.417070 12.994500 -0.242716 -4.980390 89.301100 8.975640 -85.529100 -5.348130 -0.000001 -0.000004 -62.130700 28.010400 -25.333100 -24.328900 0.000322 -0.000009 4.162520 8.472070 -26.295100 -22.291500 -0.000108 -0.000004 18.307200 5.376330 -2.183410 -2.192480 -6.469440 -0.000000 -172.277000 -12.793900 -4.101820 39.081100 -0.000007 -0.000012 -0.158317 0.245011 32.869300 40.985400 -0.000006 -0.000013 -0.894375 6.354100 -66.771000 11.754300 -0.000000 0.000003 -0.000150 -0.001456 -16.632900 -2.192510 6.469440 -0.000001 175.288000 25.996700 178.770000 -39.081100 -0.002282 -0.040193 -0.185409 0.304828 31.760200 -40.985400 0.000008 0.000006 5.205680 14.070300 -68.792700 -11.754300 -0.000006 -0.000006 -0.002809 -0.038419 -18.135500
0.000000 0.000000 0.000000 0.000000 0.000000 -0.000000 -2.610420 90.681500 -5.059230 88.663100 0.358224 11.442800 15.735700 0.000005 -0.000001 87.741400 76.318000 -88.098100 8.984550 -0.406207 -0.000000 19.575800 -1.091820 -0.527110 16.377300 -0.000001 -0.000001 7.070340 -3.516920 1.519520 6.456720 -0.000001 -0.000000 -11.217300 -3.682670 1.658600 12.994200 -0.242716 4.980390 -90.846900 5.044760 -80.457000 5.348090 -0.000007 -0.000001 -57.597700 34.356300 -29.971300 24.328600 0.000019 0.000005 10.052700 22.787600 -24.593600 22.291600 -0.000001 0.000005 10.430900 5.251600 1.390350 12.994500 -0.242716 -4.980390 89.296600 8.951210 -85.488100 -5.348130 -0.000001 -0.000004 -62.304300 27.591200 -25.159400 -24.328900 0.000322 -0.000009 4.228370 8.154650 -27.535900 -22.291500 -0.000108 -0.000004 18.472800 5.380840 -2.324880 -2.192480 -6.469440 -0.000000 -172.278000 -12.791200 -4.124070 39.081100 -0.000007 -0.000012 -0.158145 0.244442 32.901600 40.985400 -0.000006 -0.000013 -0.898081 6.318830 -66.793400 11.754300 -0.000000 0.000003 -0.000159 -0.001523 -16.635400 -2.192510 6.469440 -0.000001 175.301000 26.003600 178.742000 -39.081100 -0.002282 -0.040193 -0.182717 0.300197 31.784400 -40.985400 0.000008 0.000006 5.208880 14.071500 -68.802800 -11.754300 -0.000006 -0.000006 -0.002669 -0.036801 -18.069600
0.000000 0.000000 0.000000 0.000000 0.000000 -0.000000 -2.608890 90.682000 -5.050500 88.638200 0.350650 11.443700 15.735700 0.000005 -0.000001 87.721200 76.326200 -88.091300 8.984550 -0.406207 -0.000000 19.558900 -1.101940 -0.552253 16.377300 -0.000001 -0.000001 7.103740 -3.525300 1.511520 6.456720 -0.000001 -0.000000 -11.278900 -3.706890 1.581750 12.994200 -0.242716 4.980390 -90.840100 5.021120 -80.489600 5.348090 -0.000007 -0.000001 -57.618100 34.319300 -29.971700 24.328600 0.000019 0.000005 9.982600 22.656600 -24.557100 22.291600 -0.000001 0.000005 10.381400 5.252510 1.366380 12.994500 -0.242716 -4.980390 89.292900 8.909340 -85.443900 -5.348130 -0.000001 -0.000004 -62.517300 27.015100 -24.957500 -24.328900 0.000322 -0.000009 4.415220 7.994610 -29.043500 -22.291500 -0.000108 -0.000004 18.722700 5.383250 -2.400650 -2.192480 -6.469440 -0.000000 -172.243000 -12.790700 -4.124640 39.081100 -0.000007 -0.000012 -0.162027 0.250364 32.909900 40.985400 -0.000006 -0.000013 -0.901246 6.329260 -66.799000 11.754300 -0.000000 0.000003 -0.000155 -0.001490 -16.634100 -2.192510 6.469440 -0.000001 175.316000 26.007400 178.759000 -39.081100 -0.002282 -0.040193 -0.186451 0.306439 31.766400 -40.985400 0.000008 0.000006 5.209810 14.096700 -68.798300 -11.754300 -0.000006 -0.000006 -0.002743 -0.037655 -18.104400
